<svg xmlns="http://www.w3.org/2000/svg" xmlns:xlink="http://www.w3.org/1999/xlink" width="20" height="20" version="1.1" viewBox="0 0 20 20"><title>search_ios</title><desc>Created with Sketch.</desc><g id="Page-1" fill="none" fill-rule="evenodd" stroke="none" stroke-width="1"><g id="search_ios" fill="#000" fill-rule="nonzero" transform="translate(4.000000, 4.000000)"><path id="Shape" d="M5,1 C7.2,1 9,2.8 9,5 C9,7.2 7.2,9 5,9 C2.8,9 1,7.2 1,5 C1,2.8 2.8,1 5,1 Z M5,0 C2.2,0 0,2.2 0,5 C0,7.8 2.2,10 5,10 C7.8,10 10,7.8 10,5 C10,2.2 7.8,0 5,0 Z"/><path id="Shape" stroke="#000" stroke-width="1.5" d="M12.6,12.6 L8.2,8.2"/></g></g></svg>